HIERARCHY
ROOT hips
{
	OFFSET 0.000000 104.274902 0.000000
	CHANNELS 6 Xposition Yposition Zposition Xrotation Yrotation Zrotation
	JOINT spine
	{
		OFFSET 0.000000 10.181549 0.131524
		CHANNELS 6 Xposition Yposition Zposition Xrotation Yrotation Zrotation
		JOINT chest
		{
			OFFSET 0.000000 9.893990 -1.470706
			CHANNELS 3 Xrotation Yrotation Zrotation
			JOINT upperChest
			{
				OFFSET 0.000000 9.220787 -1.370637
				CHANNELS 3 Xrotation Yrotation Zrotation
				JOINT neck
				{
					OFFSET 0.000000 16.740372 -2.049022
					CHANNELS 6 Xposition Yposition Zposition Xrotation Yrotation Zrotation
					JOINT head
					{
						OFFSET 0.000000 9.617859 1.684976
						CHANNELS 6 Xposition Yposition Zposition Xrotation Yrotation Zrotation
						JOINT headEnd
						{
							OFFSET 0.000000 22.037384 7.501072
							CHANNELS 6 Xposition Yposition Zposition Xrotation Yrotation Zrotation
							End Site
							{
								OFFSET 0.000000 23.106567 -2.828246
							}
						}
					}
				}
				JOINT rightShoulder
				{
					OFFSET -4.570000 11.014877 -2.160840
					CHANNELS 6 Xposition Yposition Zposition Xrotation Yrotation Zrotation
					JOINT rightUpperArm
					{
						OFFSET -10.592867 -0.524796 -2.232105
						CHANNELS 3 Xrotation Yrotation Zrotation
						JOINT rightLowerArm
						{
							OFFSET -27.841497 0.000000 -0.000002
							CHANNELS 3 Xrotation Yrotation Zrotation
							JOINT rightHand
							{
								OFFSET -28.328812 0.000000 -0.000001
								CHANNELS 3 Xrotation Yrotation Zrotation
								JOINT rightThumbProximal
								{
									OFFSET -2.464798 -1.573990 2.681911
									CHANNELS 6 Xposition Yposition Zposition Xrotation Yrotation Zrotation
									JOINT rightThumbIntermediate
									{
										OFFSET -3.244781 -1.873383 1.873376
										CHANNELS 3 Xrotation Yrotation Zrotation
										JOINT rightThumbDistal
										{
											OFFSET -2.646263 -1.527817 1.527818
											CHANNELS 6 Xposition Yposition Zposition Xrotation Yrotation Zrotation
											JOINT rightHandThumb4
											{
												OFFSET -1.994591 -1.151581 1.151575
												CHANNELS 6 Xposition Yposition Zposition Xrotation Yrotation Zrotation
												End Site
												{
													OFFSET -1.860176 -1.142715 1.365483
												}
											}
										}
									}
								}
								JOINT rightIndexProximal
								{
									OFFSET -9.108299 -0.517883 2.259803
									CHANNELS 6 Xposition Yposition Zposition Xrotation Yrotation Zrotation
									JOINT rightIndexIntermediate
									{
										OFFSET -3.699997 0.000000 0.000000
										CHANNELS 3 Xrotation Yrotation Zrotation
										JOINT rightIndexDistal
										{
											OFFSET -2.850006 0.000000 0.000000
											CHANNELS 3 Xrotation Yrotation Zrotation
											JOINT rightHandIndex4
											{
												OFFSET -2.772194 0.000000 0.000000
												CHANNELS 3 Xrotation Yrotation Zrotation
												End Site
												{
													OFFSET -2.772202 0.000000 -0.000484
												}
											}
										}
									}
								}
								JOINT rightMiddleProximal
								{
									OFFSET -9.532501 0.000000 -0.000000
									CHANNELS 6 Xposition Yposition Zposition Xrotation Yrotation Zrotation
									JOINT rightMiddleIntermediate
									{
										OFFSET -3.699997 0.000000 0.000000
										CHANNELS 3 Xrotation Yrotation Zrotation
										JOINT rightMiddleDistal
										{
											OFFSET -2.949997 0.000000 0.000000
											CHANNELS 3 Xrotation Yrotation Zrotation
											JOINT rightHandMiddle4
											{
												OFFSET -2.946594 0.000000 0.000000
												CHANNELS 3 Xrotation Yrotation Zrotation
												End Site
												{
													OFFSET -2.946602 0.000000 -0.000982
												}
											}
										}
									}
								}
								JOINT rightRingProximal
								{
									OFFSET -9.103600 -0.043106 -1.865100
									CHANNELS 6 Xposition Yposition Zposition Xrotation Yrotation Zrotation
									JOINT rightRingIntermediate
									{
										OFFSET -3.379303 0.000000 0.000000
										CHANNELS 3 Xrotation Yrotation Zrotation
										JOINT rightRingDistal
										{
											OFFSET -2.889694 0.000000 0.000000
											CHANNELS 3 Xrotation Yrotation Zrotation
											JOINT rightHandRing4
											{
												OFFSET -2.638802 0.000000 0.000000
												CHANNELS 3 Xrotation Yrotation Zrotation
												End Site
												{
													OFFSET -2.638802 0.000000 0.004218
												}
											}
										}
									}
								}
								JOINT rightLittleProximal
								{
									OFFSET -8.076698 -0.486725 -3.806299
									CHANNELS 6 Xposition Yposition Zposition Xrotation Yrotation Zrotation
									JOINT rightLittleIntermediate
									{
										OFFSET -3.600006 0.000000 0.000000
										CHANNELS 3 Xrotation Yrotation Zrotation
										JOINT rightLittleDistal
										{
											OFFSET -2.099998 0.000000 0.000000
											CHANNELS 3 Xrotation Yrotation Zrotation
											JOINT rightHandPinky4
											{
												OFFSET -2.115791 0.000000 0.000000
												CHANNELS 3 Xrotation Yrotation Zrotation
												End Site
												{
													OFFSET -2.115799 0.000000 0.000174
												}
											}
										}
									}
								}
							}
						}
					}
				}
				JOINT leftShoulder
				{
					OFFSET 4.570400 11.014679 -2.160816
					CHANNELS 6 Xposition Yposition Zposition Xrotation Yrotation Zrotation
					JOINT leftUpperArm
					{
						OFFSET 10.592373 -0.524597 -2.232116
						CHANNELS 3 Xrotation Yrotation Zrotation
						JOINT leftLowerArm
						{
							OFFSET 27.841488 0.000000 0.000001
							CHANNELS 3 Xrotation Yrotation Zrotation
							JOINT leftHand
							{
								OFFSET 28.328808 0.000000 -0.000000
								CHANNELS 3 Xrotation Yrotation Zrotation
								JOINT leftThumbProximal
								{
									OFFSET 2.466103 -1.576202 2.681698
									CHANNELS 6 Xposition Yposition Zposition Xrotation Yrotation Zrotation
									JOINT leftThumbIntermediate
									{
										OFFSET 3.243317 -1.872528 1.872530
										CHANNELS 3 Xrotation Yrotation Zrotation
										JOINT leftThumbDistal
										{
											OFFSET 2.647881 -1.528763 1.528754
											CHANNELS 6 Xposition Yposition Zposition Xrotation Yrotation Zrotation
											JOINT leftHandThumb4
											{
												OFFSET 1.998924 -1.154083 1.154080
												CHANNELS 6 Xposition Yposition Zposition Xrotation Yrotation Zrotation
												End Site
												{
													OFFSET 1.884041 -1.149155 1.337651
												}
											}
										}
									}
								}
								JOINT leftIndexProximal
								{
									OFFSET 9.109299 -0.518005 2.259900
									CHANNELS 6 Xposition Yposition Zposition Xrotation Yrotation Zrotation
									JOINT leftIndexIntermediate
									{
										OFFSET 3.699997 0.000000 0.000000
										CHANNELS 3 Xrotation Yrotation Zrotation
										JOINT leftIndexDistal
										{
											OFFSET 2.850006 0.000000 0.000000
											CHANNELS 3 Xrotation Yrotation Zrotation
											JOINT leftHandIndex4
											{
												OFFSET 2.774895 0.000000 0.000000
												CHANNELS 3 Xrotation Yrotation Zrotation
												End Site
												{
													OFFSET 2.774902 0.000000 -0.000072
												}
											}
										}
									}
								}
								JOINT leftMiddleProximal
								{
									OFFSET 9.533401 0.000000 0.000000
									CHANNELS 6 Xposition Yposition Zposition Xrotation Yrotation Zrotation
									JOINT leftMiddleIntermediate
									{
										OFFSET 3.699997 0.000000 0.000000
										CHANNELS 3 Xrotation Yrotation Zrotation
										JOINT leftMiddleDistal
										{
											OFFSET 2.949997 0.000000 0.000000
											CHANNELS 3 Xrotation Yrotation Zrotation
											JOINT leftHandMiddle4
											{
												OFFSET 2.952896 0.000000 0.000000
												CHANNELS 3 Xrotation Yrotation Zrotation
												End Site
												{
													OFFSET 2.952904 0.000000 0.000165
												}
											}
										}
									}
								}
								JOINT leftRingProximal
								{
									OFFSET 9.104500 -0.042999 -1.865101
									CHANNELS 6 Xposition Yposition Zposition Xrotation Yrotation Zrotation
									JOINT leftRingIntermediate
									{
										OFFSET 3.149994 0.000000 0.000000
										CHANNELS 3 Xrotation Yrotation Zrotation
										JOINT leftRingDistal
										{
											OFFSET 2.950005 0.000000 0.000000
											CHANNELS 3 Xrotation Yrotation Zrotation
											JOINT leftHandRing4
											{
												OFFSET 2.644302 0.000000 0.000000
												CHANNELS 3 Xrotation Yrotation Zrotation
												End Site
												{
													OFFSET 2.644302 0.000000 0.000083
												}
											}
										}
									}
								}
								JOINT leftLittleProximal
								{
									OFFSET 8.077805 -0.486893 -3.806302
									CHANNELS 6 Xposition Yposition Zposition Xrotation Yrotation Zrotation
									JOINT leftLittleIntermediate
									{
										OFFSET 3.600006 0.000000 0.000000
										CHANNELS 3 Xrotation Yrotation Zrotation
										JOINT leftLittleDistal
										{
											OFFSET 2.099998 0.000000 0.000000
											CHANNELS 3 Xrotation Yrotation Zrotation
											JOINT leftHandPinky4
											{
												OFFSET 2.125496 0.000000 0.000000
												CHANNELS 3 Xrotation Yrotation Zrotation
												End Site
												{
													OFFSET 2.125504 0.000000 -0.001254
												}
											}
										}
									}
								}
							}
						}
					}
				}
			}
		}
	}
	JOINT rightUpperLeg
	{
		OFFSET -8.207800 -6.751701 -1.599544
		CHANNELS 6 Xposition Yposition Zposition Xrotation Yrotation Zrotation
		JOINT rightLowerLeg
		{
			OFFSET 0.000004 -44.370152 0.345934
			CHANNELS 3 Xrotation Yrotation Zrotation
			JOINT rightFoot
			{
				OFFSET 0.000004 -44.423664 -3.043535
				CHANNELS 3 Xrotation Yrotation Zrotation
				JOINT rightToes
				{
					OFFSET 0.000001 -8.728691 10.710592
					CHANNELS 3 Xrotation Yrotation Zrotation
					JOINT rightToesEnd
					{
						OFFSET 0.000000 -0.000665 9.278101
						CHANNELS 3 Xrotation Yrotation Zrotation
						End Site
						{
							OFFSET 0.000000 -0.000665 9.278103
						}
					}
				}
			}
		}
	}
	JOINT leftUpperLeg
	{
		OFFSET 8.207800 -6.751701 -1.599544
		CHANNELS 6 Xposition Yposition Zposition Xrotation Yrotation Zrotation
		JOINT leftLowerLeg
		{
			OFFSET 0.000004 -44.370037 0.346940
			CHANNELS 3 Xrotation Yrotation Zrotation
			JOINT leftFoot
			{
				OFFSET 0.000004 -44.423611 -3.044388
				CHANNELS 3 Xrotation Yrotation Zrotation
				JOINT leftToes
				{
					OFFSET 0.000001 -8.728690 10.710592
					CHANNELS 3 Xrotation Yrotation Zrotation
					JOINT leftToesEnd
					{
						OFFSET 0.000000 -0.000680 9.278101
						CHANNELS 3 Xrotation Yrotation Zrotation
						End Site
						{
							OFFSET 0.000000 -0.000680 9.278101
						}
					}
				}
			}
		}
	}
}
MOTION
Frames: 4
Frame Time: 0.033333
0.478564 101.630859 1.555261 -0.893322 1.577732 -5.359118 0.000000 10.181539 0.131524 1.298040 -1.197537 3.016803 0.728742 0.264195 5.944686 0.710788 0.781492 5.851999 0.000002 16.740410 -2.049023 1.045307 -0.304693 -2.163986 -0.000000 9.617837 1.684973 1.584931 0.544179 -8.140495 0.000000 22.037354 7.501073 -0.000000 -0.000000 -0.000000 -4.569999 11.014892 -2.160844 4.508130 3.324373 5.471580 -1.219687 0.655840 67.345433 -0.000007 17.736797 0.000013 -11.193108 -9.123287 10.139289 -2.464806 -1.573984 2.681910 18.491289 0.461456 -10.916089 1.284022 -32.757621 3.089024 -2.646276 -1.527815 1.527823 2.008738 -8.430465 1.114699 -1.994609 -1.151583 1.151573 0.000001 -0.000006 0.000001 -9.108302 -0.517883 2.259803 0.339564 -4.671355 7.844296 0.387030 -2.823573 20.566241 -0.193128 -0.216347 13.843934 0.000000 -0.000000 0.000002 -9.532495 0.000011 -0.000000 0.912580 -8.769259 15.831762 0.919073 -3.991131 33.400417 0.216467 -1.688829 15.898061 -0.000001 -0.000000 0.000001 -9.103602 -0.043120 -1.865102 2.555813 -11.673022 26.909204 1.710662 -3.886778 40.215464 -0.157966 0.035288 17.815341 -0.000000 0.000000 0.000000 -8.076683 -0.486722 -3.806297 5.576078 -16.029163 36.940651 1.378676 -4.077631 45.645615 -0.727746 -0.247559 22.122742 -0.000001 -0.000000 0.000001 4.570403 11.014690 -2.160817 3.582352 -13.764051 -5.044503 4.032791 3.514272 -83.678348 -0.000000 -14.506751 0.000004 -27.592612 3.698776 -9.416212 2.466087 -1.576225 2.681691 18.491381 -0.461332 10.916050 1.284014 32.757611 -3.088988 2.647887 -1.528742 1.528752 2.117129 9.311167 -0.358613 1.998925 -1.154094 1.154068 0.000000 0.000001 -0.000000 9.109283 -0.518011 2.259899 0.339558 4.671362 -7.844255 0.387027 2.823619 -20.566246 0.034602 0.816846 -10.169807 -0.000002 -0.000000 -0.000003 9.533402 0.000001 -0.000001 0.912552 8.769290 -15.831716 0.919037 3.991192 -33.400397 0.170560 1.488902 -12.264408 0.000000 -0.000000 -0.000000 9.104483 -0.042992 -1.865106 2.555781 11.673079 -26.909185 1.710613 3.886852 -40.215457 0.544840 1.835113 -19.344142 -0.000000 -0.000001 0.000000 8.077788 -0.486891 -3.806303 5.576041 16.029231 -36.940614 1.378636 4.077727 -45.645611 0.486567 2.853430 -20.524727 0.000001 0.000001 -0.000002 -8.207798 -6.751715 -1.599544 -1.603580 -4.966778 10.554076 12.445442 -5.083584 3.268290 -9.845173 1.009968 -7.756586 -0.548658 -0.000002 0.000002 -0.000000 0.000001 -0.000000 8.207797 -6.751714 -1.599543 -19.556143 10.813001 15.936472 22.044835 9.498145 2.339182 -1.490657 3.351040 -8.781916 -0.441952 0.000005 0.000005 0.000000 0.000002 0.000000 
0.480443 101.627403 1.597344 -0.940174 1.947677 -5.374436 0.000000 10.181544 0.131525 1.338586 -1.145907 3.033953 0.744517 0.286979 5.947057 0.726984 0.804070 5.854532 -0.000001 16.740374 -2.049020 1.082368 -0.317793 -2.198114 -0.000001 9.617865 1.684974 1.714616 0.474829 -8.129313 0.000001 22.037354 7.501074 0.000000 0.000000 -0.000000 -4.570002 11.014861 -2.160838 4.502102 3.340748 5.412190 -1.249493 0.223615 67.271728 -0.000007 17.815126 0.000018 -10.696833 -9.178500 10.243359 -2.464791 -1.573991 2.681901 18.491282 0.461454 -10.916072 1.284024 -32.757621 3.088989 -2.646258 -1.527808 1.527817 2.008713 -8.430467 1.114710 -1.994590 -1.151582 1.151574 0.000002 -0.000001 -0.000000 -9.108292 -0.517869 2.259803 0.341698 -4.686675 7.997099 0.392480 -2.838011 20.719135 -0.192538 -0.232276 13.996530 0.000000 0.000000 0.000002 -9.532499 0.000018 0.000000 0.921439 -8.782780 15.985600 0.927279 -4.004046 33.553895 0.220697 -1.703505 16.050825 0.000000 -0.000000 0.000002 -9.103601 -0.043103 -1.865102 2.572675 -11.682195 27.064534 1.721697 -3.897453 40.369560 -0.156539 0.019673 17.967864 -0.000000 -0.000000 -0.000000 -8.076687 -0.486722 -3.806300 5.585682 -16.041422 37.095929 1.388779 -4.089279 45.798997 -0.728371 -0.264821 22.275182 0.000001 -0.000000 0.000003 4.570403 11.014686 -2.160814 3.503755 -13.816311 -5.099097 3.948666 3.471104 -83.591461 0.000014 -14.753207 -0.000005 -27.393729 3.739539 -9.524118 2.466095 -1.576208 2.681691 18.511069 -0.732515 10.962713 1.309923 32.665004 -3.133965 2.647876 -1.528762 1.528755 2.132049 9.241618 -0.387072 1.998925 -1.154081 1.154074 0.000001 -0.000001 -0.000000 9.109289 -0.518015 2.259902 0.339553 4.671296 -7.843543 0.386929 2.823397 -20.563913 0.034584 0.816696 -10.168286 0.000001 0.000001 -0.000002 9.533410 0.000001 0.000001 0.912531 8.769230 -15.830995 0.918907 3.990998 -33.398119 0.170522 1.488757 -12.262880 -0.000000 0.000001 0.000003 9.104501 -0.042995 -1.865104 2.555715 11.673037 -26.908434 1.710431 3.886684 -40.213131 0.544774 1.834971 -19.342612 -0.000001 -0.000001 -0.000000 8.077798 -0.486889 -3.806299 5.575991 16.029182 -36.939866 1.378500 4.077553 -45.643306 0.486496 2.853283 -20.523180 -0.000000 0.000000 -0.000001 -8.207800 -6.751708 -1.599543 -1.482413 -5.028067 10.613576 12.388521 -5.350023 3.237727 -9.883227 0.976185 -7.713292 -0.548320 -0.000000 0.000000 -0.000000 -0.000000 -0.000000 8.207801 -6.751706 -1.599542 -19.582514 10.821887 15.911026 22.077246 9.133967 2.382591 -1.517182 3.342647 -8.740446 -0.484666 -0.000000 0.000007 0.000000 -0.000000 0.000000 
0.486336 101.622734 1.640820 -0.963853 2.306358 -5.383650 0.000000 10.181541 0.131525 1.373077 -1.071706 3.062599 0.753501 0.320024 5.952246 0.736536 0.836985 5.859929 -0.000001 16.740374 -2.049021 1.105507 -0.328146 -2.237342 0.000004 9.617874 1.684976 1.805841 0.429649 -8.128703 -0.000000 22.037384 7.501072 0.000000 0.000000 0.000000 -4.569998 11.014902 -2.160842 4.496985 3.359763 5.375951 -1.124191 -0.355587 67.147310 -0.000003 18.378099 0.000008 -9.865301 -9.083370 10.722155 -2.464796 -1.574009 2.681907 18.491286 0.461448 -10.916082 1.284042 -32.757625 3.089033 -2.646260 -1.527822 1.527814 2.008735 -8.430467 1.114718 -1.994613 -1.151580 1.151584 -0.000000 0.000002 0.000003 -9.108278 -0.517883 2.259805 0.347107 -4.724138 8.370752 0.405949 -2.873238 21.093055 -0.190890 -0.271247 14.369649 -0.000000 -0.000000 0.000004 -9.532487 0.000015 0.000001 0.943233 -8.815665 16.361875 0.947482 -4.035528 33.929135 0.231207 -1.739366 16.424373 0.000000 -0.000000 0.000000 -9.103585 -0.043109 -1.865100 2.613954 -11.704298 27.444390 1.748826 -3.923421 40.746402 -0.152893 -0.018481 18.340805 -0.000001 -0.000000 -0.000000 -8.076690 -0.486729 -3.806300 5.609297 -16.071218 37.475728 1.413563 -4.117616 46.174015 -0.729702 -0.307062 22.647932 0.000001 0.000000 -0.000001 4.570403 11.014700 -2.160817 3.324352 -13.793872 -5.173878 3.768627 3.403903 -83.399697 0.000008 -15.286368 -0.000000 -26.927560 3.862154 -9.674300 2.466097 -1.576207 2.681700 18.558905 -1.398430 11.081371 1.374430 32.438218 -3.244244 2.647881 -1.528738 1.528747 2.168893 9.070328 -0.456936 1.998925 -1.154091 1.154073 0.000000 0.000001 -0.000000 9.109282 -0.518013 2.259901 0.339519 4.671235 -7.843021 0.386884 2.823242 -20.562255 0.034571 0.816583 -10.167173 0.000001 0.000001 -0.000002 9.533412 -0.000003 0.000001 0.912485 8.769185 -15.830485 0.918828 3.990860 -33.396418 0.170491 1.488641 -12.261750 -0.000000 0.000001 -0.000001 9.104490 -0.042996 -1.865098 2.555653 11.673002 -26.907913 1.710331 3.886577 -40.211461 0.544725 1.834859 -19.341482 -0.000001 0.000000 0.000000 8.077803 -0.486887 -3.806301 5.575958 16.029151 -36.939357 1.378397 4.077423 -45.641619 0.486443 2.853182 -20.522075 0.000002 -0.000000 -0.000003 -8.207797 -6.751718 -1.599544 -1.409067 -5.048703 10.681665 12.358158 -5.657833 3.175986 -9.932005 0.942407 -7.646084 -0.531939 -0.000003 -0.000000 0.000000 -0.000000 -0.000000 8.207799 -6.751712 -1.599545 -19.626450 10.822990 15.870674 22.110238 8.789371 2.431730 -1.543873 3.336729 -8.702215 -0.530319 0.000003 -0.000005 0.000000 -0.000002 0.000000 
0.497480 101.618439 1.692482 -0.998324 2.676928 -5.396943 0.000000 10.181552 0.131524 1.398362 -0.980896 3.092854 0.757186 0.361214 5.960885 0.740886 0.878279 5.868770 -0.000001 16.740383 -2.049021 1.137063 -0.340150 -2.265070 -0.000000 9.617867 1.684977 1.879689 0.413691 -8.146048 -0.000000 22.037369 7.501071 -0.000000 0.000000 0.000000 -4.569999 11.014893 -2.160842 4.490439 3.403254 5.381402 -0.889194 -1.100272 66.978529 -0.000004 19.361998 0.000035 -8.773345 -8.862264 11.487788 -2.464802 -1.573994 2.681909 18.491291 0.461447 -10.916117 1.284040 -32.757638 3.089018 -2.646291 -1.527814 1.527821 2.008718 -8.430460 1.114702 -1.994594 -1.151583 1.151573 -0.000000 -0.000003 0.000001 -9.108302 -0.517886 2.259802 0.356407 -4.784968 8.978510 0.428351 -2.930354 21.701205 -0.187680 -0.334587 14.976469 -0.000000 -0.000000 0.000002 -9.532521 -0.000001 -0.000002 0.979079 -8.868703 16.973858 0.980815 -4.086454 34.539464 0.248784 -1.797527 17.031929 0.000001 0.000000 -0.000002 -9.103616 -0.043117 -1.865107 2.681239 -11.739342 28.062292 1.793315 -3.965306 41.359275 -0.146420 -0.080490 18.947363 -0.000001 -0.000000 -0.000000 -8.076715 -0.486717 -3.806298 5.648157 -16.119378 38.093567 1.454296 -4.163369 46.783992 -0.731280 -0.375737 23.254141 -0.000000 -0.000000 0.000002 4.570403 11.014720 -2.160815 3.034658 -13.740549 -5.212245 3.522604 3.357698 -83.138087 -0.000003 -16.133474 -0.000015 -26.198312 4.057306 -9.874162 2.466116 -1.576206 2.681691 18.637028 -2.481187 11.283262 1.481325 32.070976 -3.423291 2.647883 -1.528731 1.528741 2.229468 8.790488 -0.570555 1.998917 -1.154092 1.154076 0.000001 0.000000 0.000003 9.109311 -0.518008 2.259901 0.339564 4.671486 -7.845505 0.387142 2.823993 -20.570254 0.034654 0.817128 -10.172510 -0.000001 0.000001 -0.000002 9.533411 -0.000000 0.000001 0.912618 8.769405 -15.832964 0.919256 3.991539 -33.404474 0.170628 1.489162 -12.267110 -0.000000 -0.000000 -0.000003 9.104523 -0.043002 -1.865102 2.555915 11.673167 -26.910436 1.710893 3.887135 -40.219507 0.544952 1.835363 -19.346849 0.000001 0.000001 0.000000 8.077815 -0.486872 -3.806301 5.576109 16.029359 -36.941864 1.378906 4.078037 -45.649672 0.486680 2.853672 -20.527420 0.000001 0.000001 -0.000001 -8.207800 -6.751711 -1.599544 -1.308681 -5.083738 10.746812 12.314635 -5.955976 3.124672 -9.980909 0.907408 -7.581793 -0.514236 -0.000002 -0.000002 0.000000 0.000000 0.000000 8.207802 -6.751702 -1.599544 -19.656297 10.811317 15.818588 22.148924 8.448251 2.501577 -1.577751 3.334021 -8.675136 -0.566200 -0.000000 -0.000001 -0.000000 -0.000000 0.000000 
